# xmcd
#
# Track frame offsets: 
#        150
#        3231
#        17413
#        36759
#        57948
#        71727
#        85737
#        100101
#        115630
#        133941
#        150481
#        165644
#        172646
#        184286
#        200663
#
# Disc length: 2931 seconds
#
# Revision: 0
# Processed by: cddbd v1.5.2PL0 Copyright (c) Steve Scherf et al.
# Submitted via: ExactAudioCopy v1.0b3
#
DISCID=b50b710f
DTITLE=The South Austin Moonlighters - Burn and Shine
DYEAR=2014
DGENRE=Americana
TTITLE0=Ied
TTITLE1=Land Mines
TTITLE2=Found My Way Back
TTITLE3=Old Engine
TTITLE4=Down to Hell
TTITLE5=King of Friday Night
TTITLE6=Can't Live Without You
TTITLE7=One More Time
TTITLE8=29 Miles
TTITLE9=Moonlight Ride
TTITLE10=Falling Out of Love
TTITLE11=Moonlight Reprise
TTITLE12=Once I Saw a Ufo
TTITLE13=Burn and Shine
TTITLE14=I'll Be Around
EXTD=
EXTT0=
EXTT1=
EXTT2=
EXTT3=
EXTT4=
EXTT5=
EXTT6=
EXTT7=
EXTT8=
EXTT9=
EXTT10=
EXTT11=
EXTT12=
EXTT13=
EXTT14=
PLAYORDER=
